<svg id="Layer_1" data-name="Layer 1" xmlns="http://www.w3.org/2000/svg" viewBox="0 0 185.03 137.24"><defs><style>.cls-1{fill:#ff6c6c;}.cls-2{fill:#ef4041;}.cls-3{fill:#676e74;}.cls-4{fill:#eb5959;}.cls-5{fill:#dc3536;}.cls-6{fill:#edecec;}.cls-7{fill:#232323;}.cls-8{fill:#dbdadd;}.cls-9{fill:#36474f;}.cls-10{fill:#f06465;}.cls-11{fill:#fbbe18;}</style></defs><path d="M180.34,117.43a5.55,5.55,0,0,1,0-.72v-6.07a3.12,3.12,0,0,0,2.22-.92,3.14,3.14,0,0,0-2.22-5.36h-.07a10,10,0,0,0-4.69-7.4c-5.91-3.63-25-8.29-51.73-8.29L109.76,72.18q-.27-.33-.57-.63h0c-.14-.15-.3-.31-.44-.44l-.16-.15-.63-.57c-.22-.18-.44-.36-.66-.52l0,0a15.66,15.66,0,0,0-9.41-3.14h-66a12.55,12.55,0,0,0-8.88,3.68L7.1,86.21a12.57,12.57,0,0,0-2.54,3.67c-.11.24-.21.49-.31.74l0,.1c0,.15-.11.29-.15.44A8.89,8.89,0,0,0,3.8,92l-.73,2.9H4.64a3.16,3.16,0,0,0-1.69.5,3.13,3.13,0,0,0-1.44,2.64v15.69A3.16,3.16,0,0,0,4,116.84l7,1.54v.1a17.26,17.26,0,0,0,33.87,4.71H134a17.26,17.26,0,0,0,33.21,0h13.16v-5.76"/><path d="M180.34,117.43h1.5a3.4,3.4,0,0,1,0-.53v-6.26h-1.5v1.5a4.7,4.7,0,0,0,3.28-1.35v0a4.64,4.64,0,0,0-3.29-7.91h-.07v1.5l1.49-.16a11.44,11.44,0,0,0-5.39-8.51h0a33,33,0,0,0-7.16-3c-9.31-2.9-25.16-5.53-45.36-5.53v1.5l1.14-1L110.9,71.2c-.2-.23-.41-.47-.65-.71l0,0h0l-1,1.08,1.09-1c-.17-.18-.34-.35-.5-.5l-.15-.15h0l-.68-.61c-.24-.2-.49-.4-.75-.59l-.88,1.21.89-1.2,0,0h0A17.13,17.13,0,0,0,97.85,65.2h-66a14,14,0,0,0-9.94,4.12L6,85.15A13.69,13.69,0,0,0,3.2,89.26l1.36.62-1.35-.64c-.14.29-.25.57-.36.83l0,.12h0c0,.15-.11.32-.17.51l1.43.45-1.42-.49c-.12.34-.21.67-.29,1h0L1.15,96.44H4.64v-3a4.64,4.64,0,0,0-2.5.74h0A4.65,4.65,0,0,0,0,98.08v15.69a4.63,4.63,0,0,0,3.64,4.53h0l7,1.55.32-1.47H9.41v.1a18.76,18.76,0,0,0,36.81,5.12l-1.44-.41v1.5H134v-1.5l-1.44.41a18.76,18.76,0,0,0,36.09,0l-1.44-.41v1.5h14.66v-7.26h-3v4.26H166l-.31,1.09a15.76,15.76,0,0,1-30.32,0l-.31-1.09H43.65l-.31,1.09a15.77,15.77,0,0,1-30.93-4.3v-1.3l-8.12-1.81h0a1.63,1.63,0,0,1-.92-.58,1.65,1.65,0,0,1-.36-1V98.08a1.65,1.65,0,0,1,.75-1.38h0a1.68,1.68,0,0,1,.88-.26v-3H3.07v1.5l1.46.37.72-2.91h0c.07-.27.14-.52.23-.77h0v0c0-.1.08-.22.13-.37l-1.41-.52,1.4.54,0-.1-1.4-.54,1.4.55c.09-.24.18-.46.27-.65v0h0a10.94,10.94,0,0,1,2.23-3.22L24,71.44a11.08,11.08,0,0,1,7.82-3.24h66A14.14,14.14,0,0,1,106.36,71h0l0,0h0c.18.13.37.28.56.44l.59.53,1-1.1-1,1.09.15.14c.13.12.27.26.39.39l0,0,0,0,1-1.07-1.06,1.06c.16.16.32.34.49.54l14.59,17h.69a188.86,188.86,0,0,1,33.41,2.76,93.82,93.82,0,0,1,11.06,2.64,30.6,30.6,0,0,1,6.48,2.67h0a8.44,8.44,0,0,1,4,6.28l.15,1.34h1.41A1.64,1.64,0,0,1,182,107.5a1.66,1.66,0,0,1-.49,1.17l1.07,1-1.05-1.07a1.66,1.66,0,0,1-1.17.49h-1.5v7.57h1.5l-1.49-.19a8.34,8.34,0,0,0-.06.91h1.5"/><path class="cls-1" d="M175.63,97c-5.91-3.64-25-8.29-51.73-8.29L109.77,72.18A15.71,15.71,0,0,0,97.85,66.7h-66a12.55,12.55,0,0,0-8.88,3.68L7.1,86.21A12.51,12.51,0,0,0,3.8,92l-2.3,9.18,47.08,22H180.39V105.45A10,10,0,0,0,175.63,97"/><path class="cls-2" d="M109.77,72.18A15.7,15.7,0,0,0,97.85,66.7h-66a12.55,12.55,0,0,0-8.88,3.68L7.78,85.53H16a78.27,78.27,0,0,1,8.66.48l23.93,2.66H123.9Z"/><path class="cls-3" d="M104.86,88.67H52.75a77,77,0,0,1-8.32-.46L28.1,86.39a4.3,4.3,0,0,1-2.89-7L31,72.19a6.3,6.3,0,0,1,4.9-2.35H89.58A6.29,6.29,0,0,1,94.4,72.1l11.66,14A1.57,1.57,0,0,1,104.86,88.67Z"/><path class="cls-2" d="M180.39,107.5c0-6.28-9.42-12.56-53.35-12.56H4.64A3.15,3.15,0,0,0,1.5,98.08v15.69l59.63,6.28H180.39V107.5"/><path d="M3,113.93a1.57,1.57,0,0,0,.35.86,1.63,1.63,0,0,0,.92.58h0l8.12,1.81v1.3a1.93,1.93,0,0,0,0,.24l19.79,4.39a2.58,2.58,0,0,0,.68.08H43.22l.12-.41.31-1.09h1.72l-9.13-4.26L3,113.93"/><path d="M45.37,121.69H43.65l-.31,1.09-.12.41h5.36l-3.21-1.5m-43.87-8A3.15,3.15,0,0,0,4,116.84l8.46,1.88a1.93,1.93,0,0,1,0-.24v-1.3l-8.12-1.81h0a1.63,1.63,0,0,1-.92-.58,1.57,1.57,0,0,1-.35-.86l-1.51-.16v-.06"/><path d="M181.32,117.43h-.93v5.76a3.25,3.25,0,0,0,.93-.15v-5.61m-.93-.52v.52h.93v-.36a3.18,3.18,0,0,0-.93-.16"/><polyline class="cls-4" points="180.39 116.91 180.39 116.91 180.39 120.05 61.13 120.05 36.24 117.43 45.37 121.69 48.58 123.19 180.39 123.19 180.39 123.19 180.39 117.43 180.39 116.91 180.39 116.91"/><path class="cls-5" d="M4.65,110.64a3.15,3.15,0,0,0-3.07,2.45,3.4,3.4,0,0,0-.08.62v.06l1.51.16,33.23,3.5,24.89,2.62H180.39v-3.14H33.23l-27.91-6.2a3.05,3.05,0,0,0-.67-.07"/><path class="cls-6" d="M28.18,104.1a14.39,14.39,0,1,1-14.39,14.38A14.38,14.38,0,0,1,28.18,104.1Z"/><path class="cls-7" d="M28.18,135.74a17.26,17.26,0,1,1,17.26-17.26A17.28,17.28,0,0,1,28.18,135.74Zm0-28.24a11,11,0,1,0,11,11A11,11,0,0,0,28.18,107.5Z"/><path class="cls-8" d="M28.18,112.2a6.28,6.28,0,1,1-6.28,6.28A6.28,6.28,0,0,1,28.18,112.2Z"/><path class="cls-1" d="M180.39,110.64h-3.14a3.14,3.14,0,1,1,0-6.28h3.14a3.14,3.14,0,1,1,0,6.28Z"/><rect class="cls-9" x="70.55" y="69.84" width="6.28" height="18.83"/><path class="cls-6" d="M177,98.08h-2.91a3.14,3.14,0,0,0,0,6.28h6.14A9.83,9.83,0,0,0,177,98.08Z"/><polygon class="cls-9" points="42.52 88 48.58 69.84 42.3 69.84 33.71 87.02 42.52 88"/><path class="cls-10" d="M3.8,92l-.73,2.9h7.85a3.14,3.14,0,1,0,0-6.27H5.21A12.48,12.48,0,0,0,3.8,92Z"/><path class="cls-6" d="M150.57,104.1a14.39,14.39,0,1,1-14.38,14.38A14.38,14.38,0,0,1,150.57,104.1Z"/><path class="cls-7" d="M150.57,135.74a17.26,17.26,0,1,1,17.26-17.26A17.28,17.28,0,0,1,150.57,135.74Zm0-28.24a11,11,0,1,0,11,11A11,11,0,0,0,150.57,107.5Z"/><path class="cls-8" d="M150.57,112.2a6.28,6.28,0,1,1-6.27,6.28A6.28,6.28,0,0,1,150.57,112.2Z"/><path class="cls-3" d="M109.77,72.18a15.84,15.84,0,0,0-2.51-2.34h-5.12a1.57,1.57,0,0,0-1.2,2.57l11.66,14a6.28,6.28,0,0,0,4.82,2.26h6.48Z"/><path d="M85.88,41.23l6.66-3.65a1.51,1.51,0,0,0,.62-.63L96.8,30.3a1.58,1.58,0,0,1,2.77,0L103.21,37a1.59,1.59,0,0,0,.63.63l6.66,3.65a1.57,1.57,0,0,1,0,2.76l-6.66,3.64a1.73,1.73,0,0,0-.63.63l-3.64,6.66a1.58,1.58,0,0,1-2.77,0l-3.64-6.66a1.63,1.63,0,0,0-.62-.63L85.88,44A1.57,1.57,0,0,1,85.88,41.23Z"/><path d="M85.88,41.23l.72,1.31,6.66-3.64h0a3,3,0,0,0,1.23-1.23h0L98.12,31l0,0h.09l0,0h0l3.64,6.65h0a3.11,3.11,0,0,0,1.22,1.22l0,0,6.63,3.63h0l0,0v.08l0,0-6.67,3.64h0a3.2,3.2,0,0,0-1.21,1.21h0L98.26,54.2h0l0,0h-.08l0,0h0l-3.64-6.66h0a3.11,3.11,0,0,0-1.22-1.22h0L86.6,42.68l0,0v-.08l0,0h0l-.72-1.31-.72-1.32a3.07,3.07,0,0,0-1.6,2.7,3.12,3.12,0,0,0,.4,1.53,3.07,3.07,0,0,0,1.2,1.17L91.82,49h0l0,0h0l3.64,6.66h0a3.06,3.06,0,0,0,1.18,1.21,3.06,3.06,0,0,0,4.23-1.21h0L104.53,49h0l0-.05,6.65-3.63a3,3,0,0,0,1.6-2.7,3.06,3.06,0,0,0-.4-1.52,3.09,3.09,0,0,0-1.2-1.18h0l-6.66-3.64h0l0,0h0l-3.64-6.65h0a3,3,0,0,0-1.18-1.2,3.06,3.06,0,0,0-1.52-.4,3.07,3.07,0,0,0-2.71,1.6l-3.63,6.65h0l0,0h0l-6.65,3.64h0Z"/><path d="M114.8,20.67l11.45-6.26a1.66,1.66,0,0,0,.63-.63l6.26-11.46a1.59,1.59,0,0,1,2.78,0l6.25,11.46a1.73,1.73,0,0,0,.63.63l11.46,6.26a1.58,1.58,0,0,1,0,2.77L142.8,29.71a1.59,1.59,0,0,0-.63.63l-6.25,11.45a1.59,1.59,0,0,1-2.78,0l-6.26-11.45a1.53,1.53,0,0,0-.63-.63L114.8,23.44A1.58,1.58,0,0,1,114.8,20.67Z"/><path d="M114.8,20.67l.72,1.31L127,15.73h0a3.14,3.14,0,0,0,1.23-1.22h0L134.46,3h0l0,0h.09l0,0h0l6.27,11.49v0a3.2,3.2,0,0,0,1.21,1.21L153.54,22h0l0,0v.09l0,0-11.46,6.27h0a3,3,0,0,0-1.21,1.22h0L134.6,41.07h0l0,0h-.09l0,0h0l-6.27-11.45h0A3,3,0,0,0,127,28.39h0l-11.45-6.26,0,0V22l0,0h0l-.72-1.31-.73-1.32a3.24,3.24,0,0,0-1.2,1.18,3.2,3.2,0,0,0-.4,1.53,3.07,3.07,0,0,0,.41,1.52,3,3,0,0,0,1.2,1.18L125.53,31h0l0,0h0l6.27,11.45h0a3.07,3.07,0,0,0,4.22,1.21,3.16,3.16,0,0,0,1.18-1.2h0l6.26-11.46h0l0,0L155,24.76a3.07,3.07,0,0,0,1.6-2.7,3.1,3.1,0,0,0-.4-1.53A3.14,3.14,0,0,0,155,19.35l-11.47-6.26h0l-.05,0h0L137.23,1.6h0A3.16,3.16,0,0,0,136.05.4,3.11,3.11,0,0,0,133,.4a3.14,3.14,0,0,0-1.17,1.2h0l-6.27,11.46h0l0,0h0l-11.45,6.26h0Z"/><path d="M153.56,53.25l3.64,6.65a1.59,1.59,0,0,0,.63.63l1.16.63,0,0,5.46,3a1.58,1.58,0,0,1,0,2.77l-6.66,3.63a1.66,1.66,0,0,0-.63.63l-3.64,6.67a1.58,1.58,0,0,1-2.77,0l-3.64-6.67a1.59,1.59,0,0,0-.63-.63l-6.65-3.63a1.58,1.58,0,0,1,0-2.77l5.46-3,0,0,1.15-.63a1.53,1.53,0,0,0,.63-.63l3.64-6.65A1.58,1.58,0,0,1,153.56,53.25Z"/><path d="M153.56,53.25l-1.31.72,3.64,6.65v0a3.15,3.15,0,0,0,1.22,1.21l1.14.62h0l5.49,3,0,0v.09l0,0-6.65,3.63a3.15,3.15,0,0,0-1.22,1.21v0l-3.64,6.66,0,0h-.09l0,0-3.64-6.67h0a3,3,0,0,0-1.2-1.2l-6.67-3.64h0l0,0v-.09l0,0h0l5.48-3,0,0,1.14-.62h0a3.14,3.14,0,0,0,1.2-1.2h0L152.11,54l0,0h.09l0,0,1.31-.72,1.32-.72a3,3,0,0,0-1.18-1.2,3.06,3.06,0,0,0-1.52-.4,3.07,3.07,0,0,0-2.71,1.6l-3.63,6.65h0l-.05,0,.73,1.31-.71-1.32-1.18.65,0,0-5.44,3h0a3.07,3.07,0,0,0-1.6,2.7,3.1,3.1,0,0,0,.4,1.53,3.14,3.14,0,0,0,1.19,1.18l6.67,3.63.71-1.32-.73,1.31.05.05,3.63,6.66a3.24,3.24,0,0,0,1.18,1.2,3.1,3.1,0,0,0,1.53.4,3.07,3.07,0,0,0,2.7-1.6l3.64-6.67h0l0,0,6.68-3.64h0a3.16,3.16,0,0,0,1.2-1.18,3.11,3.11,0,0,0,0-3,3.16,3.16,0,0,0-1.2-1.18l-5.44-3h0l-1.18-.65,0,0-3.63-6.64Z"/><path class="cls-11" d="M96.8,30.3,93.16,37a1.63,1.63,0,0,1-.62.63l-6.66,3.63a1.58,1.58,0,0,0,0,2.78l6.66,3.64a1.54,1.54,0,0,1,.62.62l3.64,6.66a1.58,1.58,0,0,0,2.78,0l3.63-6.66a1.63,1.63,0,0,1,.63-.62L110.5,44a1.59,1.59,0,0,0,0-2.78l-6.66-3.63a1.73,1.73,0,0,1-.63-.63L99.58,30.3A1.59,1.59,0,0,0,96.8,30.3Z"/><path class="cls-11" d="M150.79,53.24l-3.64,6.66a1.53,1.53,0,0,1-.63.63l-6.65,3.64a1.58,1.58,0,0,0,0,2.77l6.65,3.64a1.47,1.47,0,0,1,.63.63l3.64,6.65a1.58,1.58,0,0,0,2.77,0l3.64-6.65a1.59,1.59,0,0,1,.63-.63l6.66-3.64a1.58,1.58,0,0,0,0-2.77l-6.66-3.64a1.66,1.66,0,0,1-.63-.63l-3.64-6.66A1.58,1.58,0,0,0,150.79,53.24Z"/><path class="cls-11" d="M157.05,63.6l-3.69-4.15a1.59,1.59,0,0,0-2.36,0l-3.7,4.15a1.58,1.58,0,1,1-1.93-2.44l1.15-.63a1.53,1.53,0,0,0,.63-.63l3.64-6.66a1.58,1.58,0,0,1,2.77,0l3.64,6.66a1.66,1.66,0,0,0,.63.63l1.16.63a1.58,1.58,0,1,1-1.94,2.44Z"/><path class="cls-11" d="M103.09,40.74,99.4,36.59a1.59,1.59,0,0,0-2.36,0l-3.69,4.15a1.56,1.56,0,0,1-.93.5h0a1.58,1.58,0,0,1-1-2.94l1.16-.63a1.63,1.63,0,0,0,.62-.63l3.64-6.66a1.59,1.59,0,0,1,2.78,0L103.25,37a1.63,1.63,0,0,0,.62.63l1.16.63a1.58,1.58,0,0,1-1,2.94A1.56,1.56,0,0,1,103.09,40.74Z"/><path class="cls-11" d="M133.14,2.32l-6.26,11.46a1.73,1.73,0,0,1-.63.63l-11.46,6.26a1.58,1.58,0,0,0,0,2.77l11.46,6.26a1.73,1.73,0,0,1,.63.63l6.26,11.46a1.58,1.58,0,0,0,2.77,0l6.27-11.46a1.63,1.63,0,0,1,.62-.63l11.46-6.26a1.58,1.58,0,0,0,0-2.77L142.8,14.41a1.63,1.63,0,0,1-.62-.63L135.91,2.32A1.58,1.58,0,0,0,133.14,2.32Z"/></svg>